# xmcd
#
# Track frame offsets:
#	183
#	10828
#	23735
#	36543
#	50393
#	64573
#	76045
#	88135
#	97268
#	110160
#	121350
#	135908
#	147588
#	158495
#
# Disc length: 2315 seconds
# Revision: 0
# Processed by: cddbd v1.5.2PL0 Copyright (c) Steve Scherf et al.
# Submitted via: dBpowerAMP V12.0
#
DISCID=b609090e
DTITLE=Frankie Lane - 14 Great Country Songs
DYEAR=1990
DGENRE=Country
TTITLE0=Sixteen Tons
TTITLE1=Moonlight Gambler
TTITLE2=Granada
TTITLE3=Still Water Runs Cool
TTITLE4=Don´t Fence me in
TTITLE5=On The Sunny Side of The Street
TTITLE6=Your Cheatin´ Heart
TTITLE7=Rawhide
TTITLE8=The Cry of The Wild Goose
TTITLE9=Rose, Rose I Live You
TTITLE10=Jealousy
TTITLE11=Strange Lady in Town
TTITLE12=Shine
TTITLE13=That Lucky Old Sun
EXTD=
EXTT0=
EXTT1=
EXTT2=
EXTT3=
EXTT4=
EXTT5=
EXTT6=
EXTT7=
EXTT8=
EXTT9=
EXTT10=
EXTT11=
EXTT12=
EXTT13=
PLAYORDER=
